<svg width="55" height="53" viewBox="0 0 55 53" fill="none" xmlns="http://www.w3.org/2000/svg">
<g clip-path="url(#clip0_86_774)">
<g clip-path="url(#clip1_86_774)">
<path d="M27.2842 4.42578V4.79765C39.5168 4.79765 49.4325 14.4596 49.4325 26.3789C49.4325 38.2982 39.5168 47.9601 27.2842 47.9601C15.0517 47.9601 5.13591 38.2982 5.13591 26.3789H4.75427C4.75427 38.5039 14.8407 48.332 27.2842 48.332C39.7278 48.332 49.8142 38.5039 49.8142 26.3789C49.8119 14.2539 39.7255 4.42578 27.2842 4.42578Z" fill="#55A226" stroke="#55A126" stroke-width="0.2"/>
<path d="M49.0487 26.3788C49.0487 38.0925 39.3035 47.5882 27.282 47.5882C15.2605 47.5882 5.5153 38.0925 5.5153 26.3788H5.13367C5.13367 38.2981 15.0495 47.96 27.282 47.96C39.5145 47.96 49.4303 38.2981 49.4303 26.3788C49.4303 14.4595 39.5145 4.79755 27.282 4.79755V5.16941C39.3057 5.16941 49.0487 14.6651 49.0487 26.3788Z" fill="#5AAB29" stroke="#5AAB29" stroke-width="0.2"/>
<path d="M48.6693 26.3788C48.6693 37.8869 39.0948 47.2163 27.2843 47.2163C15.4738 47.2163 5.89921 37.8869 5.89921 26.3788H5.51758C5.51758 38.0925 15.2628 47.5881 27.2843 47.5881C39.3058 47.5881 49.051 38.0925 49.051 26.3788C49.051 14.665 39.3058 5.16937 27.2843 5.16937V5.54124C39.0948 5.54124 48.6693 14.8707 48.6693 26.3788Z" fill="#5CB02B" stroke="#5CB02B" stroke-width="0.2"/>
<path d="M27.2842 47.2163C39.0947 47.2163 48.6693 37.8869 48.6693 26.3788C48.6693 14.8707 39.0947 5.54126 27.2842 5.54126V5.91312C38.8837 5.91312 48.2876 15.0763 48.2876 26.3788C48.2876 37.6813 38.8837 46.8444 27.2842 46.8444C15.6848 46.8444 6.28081 37.6813 6.28081 26.3788H5.89917C5.89917 37.8869 15.4737 47.2163 27.2842 47.2163Z" fill="#5EB52B" stroke="#5EB52B" stroke-width="0.2"/>
<path d="M6.28088 26.3788C6.28088 37.6813 15.6848 46.8445 27.2843 46.8445C38.8838 46.8445 48.2877 37.6813 48.2877 26.3788C48.2877 15.0763 38.8838 5.91315 27.2843 5.91315V26.3788H6.28088Z" fill="#5FB92A" stroke="#5FB92A" stroke-width="0.2"/>
<path d="M19.0476 7.54492C11.5406 10.6664 6.27856 17.9221 6.27856 26.3766H27.282L19.0476 7.54492Z" fill="#ECECEC" stroke="#CECECE" stroke-width="0.2"/>
<path d="M27.2843 26.3788V5.91315C24.3614 5.91315 21.5777 6.49501 19.0499 7.54716L27.2843 26.3832V26.3788Z" fill="#FF5715" stroke="#FF5715" stroke-width="0.2"/>
<path d="M18.6009 6.51904L18.4505 6.1778C10.398 9.52457 4.75427 17.3097 4.75427 26.3788H5.13591C5.13591 17.4628 10.6853 9.81113 18.6009 6.51904Z" fill="#B0B0B0" stroke="#B0B0B0" stroke-width="0.2"/>
<path d="M18.749 6.86247L18.6009 6.51904C10.6853 9.80895 5.13586 17.4628 5.13586 26.3766H5.5175C5.5175 17.6159 10.9704 10.0955 18.749 6.86247Z" fill="#BBBBBB" stroke="#BBBBBB" stroke-width="0.2"/>
<path d="M5.51758 26.3788H5.89921C5.89921 17.7712 11.2578 10.3821 18.8995 7.20373L18.7491 6.86249C10.9705 10.0955 5.51758 17.6159 5.51758 26.3788Z" fill="#CACACA" stroke="#CACACA" stroke-width="0.2"/>
<path d="M19.0477 7.54497L18.8973 7.20374C11.2533 10.3821 5.89697 17.7691 5.89697 26.3788H6.27861C6.28085 17.9244 11.5407 10.6664 19.0477 7.54497Z" fill="#DDDDDD" stroke="#DDDDDD" stroke-width="0.2"/>
<path d="M27.2843 4.79752V4.42566C24.1482 4.42566 21.1647 5.05127 18.4506 6.1778L18.601 6.51904C21.2657 5.41219 24.202 4.79752 27.2843 4.79752Z" fill="#F2340F" stroke="#F2340F" stroke-width="0.2"/>
<path d="M18.749 6.86249C21.3689 5.77314 24.2536 5.16941 27.282 5.16941V4.79755C24.1997 4.79755 21.2656 5.41222 18.5986 6.51906L18.749 6.86249Z" fill="#F93A0D" stroke="#F93A0D" stroke-width="0.2"/>
<path d="M27.2843 5.54124V5.16937C24.2559 5.16937 21.3712 5.7731 18.7513 6.86245L18.9018 7.20369C21.4744 6.13403 24.3075 5.54124 27.2843 5.54124Z" fill="#FF3F0B" stroke="#FF3F0B" stroke-width="0.2"/>
<path d="M27.2843 5.91312V5.54126C24.3075 5.54126 21.4745 6.13406 18.8995 7.20371L19.0499 7.54495C21.5777 6.49498 24.3614 5.91312 27.2843 5.91312Z" fill="#FF4A12" stroke="#FF4A12" stroke-width="0.2"/>
<path d="M32.3533 13.4904C32.25 13.4511 32.1378 13.4904 32.0862 13.5845L27.6053 21.8508C27.4818 21.8421 27.3606 21.8355 27.2439 21.8355C24.7992 21.8355 22.8102 23.7736 22.8102 26.1557C22.8102 28.3235 24.4557 30.15 26.6535 30.4343L29.7964 43.4321C29.8233 43.5436 29.9198 43.6158 30.0343 43.6158C30.0478 43.6158 30.0635 43.6158 30.0792 43.6115C30.2117 43.5896 30.2992 43.4824 30.2857 43.3533L29.0466 30.1062C30.6494 29.4128 31.6798 27.8707 31.6798 26.1579C31.6798 24.8476 31.0804 23.6292 30.0343 22.8046L32.4835 13.7376C32.5105 13.6326 32.4566 13.5298 32.3533 13.4904Z" fill="#191919"/>
<path d="M27.2462 29.3734C29.0687 29.3734 30.5462 27.9338 30.5462 26.1579C30.5462 24.382 29.0687 22.9424 27.2462 22.9424C25.4236 22.9424 23.9462 24.382 23.9462 26.1579C23.9462 27.9338 25.4236 29.3734 27.2462 29.3734Z" fill="#262626"/>
<path d="M27.2461 27.1576C27.8127 27.1576 28.2721 26.71 28.2721 26.1579C28.2721 25.6058 27.8127 25.1583 27.2461 25.1583C26.6795 25.1583 26.2202 25.6058 26.2202 26.1579C26.2202 26.71 26.6795 27.1576 27.2461 27.1576Z" fill="#191919"/>
<path d="M27.2461 26.9585C27.6999 26.9585 28.0677 26.6001 28.0677 26.1579C28.0677 25.7157 27.6999 25.3573 27.2461 25.3573C26.7923 25.3573 26.4244 25.7157 26.4244 26.1579C26.4244 26.6001 26.7923 26.9585 27.2461 26.9585Z" fill="#262626"/>
<path fill-rule="evenodd" clip-rule="evenodd" d="M51.3721 25.8079C51.3631 25.4842 51.325 24.8411 51.325 24.8411C50.4899 12.3574 39.6469 2.59921 26.696 2.90545C20.6123 3.04982 15.1055 5.39038 10.9524 9.12871C6.39527 13.2302 3.4679 19.0159 3.20749 25.4295C3.18728 25.9326 3.18055 26.4379 3.19402 26.9476C3.51729 39.8906 14.5847 50.165 27.8679 49.85C34.8653 49.6838 41.1039 46.6126 45.3917 41.8484C49.2439 37.5719 51.5248 31.9327 51.3721 25.8079ZM26.3997 48.3182V46.1204C26.3997 45.6458 26.7948 45.2608 27.2842 45.2608C27.7713 45.2608 28.1665 45.6458 28.1665 46.1204V48.3194C34.5979 48.0753 40.3105 45.2171 44.2513 40.8247C47.5418 37.1569 49.5938 32.4207 49.7988 27.2407H47.5445C47.0551 27.2386 46.66 26.8536 46.66 26.3789C46.66 25.9042 47.0551 25.5192 47.5422 25.5192H49.7991C49.3408 14.017 39.8493 4.87482 28.1665 4.43878V6.64821C28.1665 7.12288 27.7713 7.50787 27.282 7.50787C26.7948 7.50787 26.3997 7.12288 26.3997 6.64821V4.43842C23.7075 4.54164 21.1426 5.10133 18.7805 6.04005C16.2796 7.03314 14.0055 8.4506 12.0524 10.1984C7.76242 14.0351 5.0124 19.4643 4.7677 25.4951L4.7671 25.517H7.02162C7.51101 25.517 7.90612 25.902 7.90612 26.3789C7.90612 26.8535 7.51101 27.2385 7.02386 27.2385H4.76702C5.22506 38.7406 14.7172 47.8815 26.3997 48.3182Z" fill="#191919"/>
<path d="M44.7917 8.504C34.9797 -0.603646 19.6097 -0.58155 9.82268 8.30293C9.45079 8.64099 9.08343 8.9923 8.72742 9.35466C-0.975733 19.2798 -0.581167 35.0425 9.60272 44.4971C19.7866 53.9494 35.9661 53.5672 45.667 43.6442C45.8937 43.4122 46.1137 43.1758 46.3291 42.9372C55.3429 32.9855 54.7375 17.7354 44.7917 8.504ZM45.0842 41.7838C44.8688 42.0224 44.6511 42.2588 44.4243 42.4908C35.3765 51.7465 20.2855 52.1022 10.7864 43.2863C1.28735 34.4703 0.922265 19.7659 9.97007 10.5102C10.3261 10.1457 10.6934 9.79656 11.0676 9.46072C20.1993 1.24351 34.4831 1.24572 43.608 9.71481C52.8689 18.3098 53.4472 32.4994 45.0842 41.7838Z" fill="#F4F4F4"/>
<path d="M54.3844 25.8569C54.0208 11.2492 41.5278 -0.348546 26.5363 0.00800585C19.586 0.172064 13.3025 2.87573 8.59493 7.18498C3.14653 12.1723 -0.187171 19.3056 0.00813697 27.1432C0.371813 41.7509 12.8648 53.3465 27.8563 52.9921C35.7 52.8062 42.6974 49.385 47.5352 44.0717C51.942 39.2309 54.5573 32.8195 54.3844 25.8569ZM46.1277 42.7658C41.6333 47.7269 35.1186 50.9272 27.8092 51.1C13.8884 51.4281 2.28672 40.6615 1.94999 27.0972C1.93652 26.5985 1.94325 26.1041 1.96121 25.6141C2.20591 18.8878 5.24777 12.8133 10.0047 8.49526C14.3666 4.536 20.1697 2.05326 26.5834 1.90233C40.1786 1.58077 51.5581 11.8442 52.3977 24.9601C52.4179 25.2729 52.4336 25.5879 52.4426 25.9051C52.602 32.3449 50.1932 38.275 46.1277 42.7658Z" fill="#E0E0E0"/>
</g>
</g>
<defs>
<clipPath id="clip0_86_774">
<rect width="54.3926" height="53" fill="white"/>
</clipPath>
<clipPath id="clip1_86_774">
<rect width="54.3926" height="53" fill="white"/>
</clipPath>
</defs>
</svg>
