<svg width="55" height="53" viewBox="0 0 55 53" fill="none" xmlns="http://www.w3.org/2000/svg">
<path d="M54.3844 25.8569C54.0208 11.2492 41.5278 -0.348546 26.5363 0.00800585C19.586 0.172064 13.3025 2.87573 8.59493 7.18498C3.14653 12.1723 -0.187171 19.3056 0.00813697 27.1432C0.371813 41.7509 12.8648 53.3465 27.8563 52.9921C35.7 52.8062 42.6974 49.385 47.5352 44.0717C51.942 39.2309 54.5573 32.8195 54.3844 25.8569ZM46.1277 42.7658C41.6333 47.7269 35.1186 50.9272 27.8092 51.1C13.8884 51.4281 2.28672 40.6615 1.94999 27.0972C1.93652 26.5985 1.94325 26.1041 1.96121 25.6141C2.20591 18.8878 5.24777 12.8133 10.0047 8.49526C14.3666 4.536 20.1697 2.05326 26.5834 1.90233C40.1786 1.58077 51.5581 11.8442 52.3977 24.9601C52.4179 25.2729 52.4336 25.5879 52.4426 25.9051C52.602 32.3449 50.1932 38.275 46.1277 42.7658Z" fill="#E0E0E0"/>
</svg>
